<svg xmlns="http://www.w3.org/2000/svg" viewBox="0 0 800 450" width="800" height="450">
  <defs>
    <linearGradient id="bg" x1="0" y1="0" x2="0.8" y2="1">
      <stop offset="0%" stop-color="#0F172A"/>
      <stop offset="100%" stop-color="#1E293B"/>
    </linearGradient>
    <linearGradient id="barUp" x1="0" y1="0" x2="0" y2="1">
      <stop offset="0%" stop-color="#8B5CF6"/>
      <stop offset="100%" stop-color="#6D28D9" stop-opacity="0.6"/>
    </linearGradient>
    <linearGradient id="barGreen" x1="0" y1="0" x2="0" y2="1">
      <stop offset="0%" stop-color="#22C55E"/>
      <stop offset="100%" stop-color="#16A34A" stop-opacity="0.6"/>
    </linearGradient>
  </defs>

  <rect width="800" height="450" fill="url(#bg)"/>

  <!-- Header -->
  <text x="60" y="40" font-family="'Inter',system-ui,sans-serif" font-size="12" font-weight="600" fill="#94A3B8" letter-spacing="3">TIME BLOCKING</text>
  <text x="60" y="58" font-family="'Inter',system-ui,sans-serif" font-size="9.5" fill="#475569">Visual Day Planner</text>
  <rect x="618" y="28" width="148" height="22" rx="11" fill="#1E293B"/>
  <text x="692" y="43" text-anchor="middle" font-family="'Inter',system-ui,sans-serif" font-size="9" fill="#64748B">Thu · 15 May 2026</text>

  <!-- Timeline background -->
  <rect x="58" y="72" width="484" height="112" rx="6" fill="#080F1C" opacity="0.65"/>

  <!-- Grid lines -->
  <line x1="60"  y1="72" x2="60"  y2="184" stroke="#334155" stroke-width="1.5" opacity="0.5"/>
  <line x1="140" y1="72" x2="140" y2="184" stroke="#334155" stroke-width="1"   opacity="0.3"/>
  <line x1="220" y1="72" x2="220" y2="184" stroke="#334155" stroke-width="1"   opacity="0.3"/>
  <line x1="300" y1="72" x2="300" y2="184" stroke="#334155" stroke-width="1"   opacity="0.3"/>
  <line x1="380" y1="72" x2="380" y2="184" stroke="#334155" stroke-width="1"   opacity="0.3"/>
  <line x1="460" y1="72" x2="460" y2="184" stroke="#334155" stroke-width="1"   opacity="0.3"/>
  <line x1="540" y1="72" x2="540" y2="184" stroke="#334155" stroke-width="1.5" opacity="0.5"/>

  <!-- Time labels -->
  <text x="60"  y="198" text-anchor="middle" font-family="'Inter',system-ui,sans-serif" font-size="8.5" fill="#475569">8 AM</text>
  <text x="140" y="198" text-anchor="middle" font-family="'Inter',system-ui,sans-serif" font-size="8.5" fill="#475569">10</text>
  <text x="220" y="198" text-anchor="middle" font-family="'Inter',system-ui,sans-serif" font-size="8.5" fill="#475569">12 PM</text>
  <text x="300" y="198" text-anchor="middle" font-family="'Inter',system-ui,sans-serif" font-size="8.5" fill="#475569">2</text>
  <text x="380" y="198" text-anchor="middle" font-family="'Inter',system-ui,sans-serif" font-size="8.5" fill="#475569">4</text>
  <text x="460" y="198" text-anchor="middle" font-family="'Inter',system-ui,sans-serif" font-size="8.5" fill="#475569">6</text>
  <text x="540" y="198" text-anchor="middle" font-family="'Inter',system-ui,sans-serif" font-size="8.5" fill="#475569">8 PM</text>

  <!-- Track 1 (y=76, h=48) -->
  <!-- Exercise 8:00-9:00 x=60 w=40 -->
  <rect x="62"  y="76" width="36"  height="48" rx="5" fill="#22C55E" opacity="0.88"/>
  <text x="80"  y="105" text-anchor="middle" font-family="'Inter',system-ui,sans-serif" font-size="7.5" font-weight="600" fill="#fff">Run</text>

  <!-- Deep Work 9:00-12:00 x=100 w=120 -->
  <rect x="102" y="76" width="116" height="48" rx="5" fill="#8B5CF6" opacity="0.9"/>
  <text x="160" y="96"  text-anchor="middle" font-family="'Inter',system-ui,sans-serif" font-size="9"   font-weight="700" fill="#fff">Deep Work</text>
  <text x="160" y="112" text-anchor="middle" font-family="'Inter',system-ui,sans-serif" font-size="7"   fill="rgba(255,255,255,0.65)">9:00 – 12:00</text>

  <!-- Lunch 12:00-13:00 x=220 w=40 -->
  <rect x="222" y="76" width="36"  height="48" rx="5" fill="#F97316" opacity="0.88"/>
  <text x="240" y="105" text-anchor="middle" font-family="'Inter',system-ui,sans-serif" font-size="7.5" font-weight="600" fill="#fff">Lunch</text>

  <!-- Meeting 13:00-14:30 x=260 w=60 -->
  <rect x="262" y="76" width="56"  height="48" rx="5" fill="#3B82F6" opacity="0.9"/>
  <text x="290" y="105" text-anchor="middle" font-family="'Inter',system-ui,sans-serif" font-size="7.5" font-weight="600" fill="#fff">Meeting</text>

  <!-- Deep Work 14:30-17:00 x=320 w=100 -->
  <rect x="322" y="76" width="96"  height="48" rx="5" fill="#8B5CF6" opacity="0.9"/>
  <text x="370" y="96"  text-anchor="middle" font-family="'Inter',system-ui,sans-serif" font-size="9"   font-weight="700" fill="#fff">Deep Work</text>
  <text x="370" y="112" text-anchor="middle" font-family="'Inter',system-ui,sans-serif" font-size="7"   fill="rgba(255,255,255,0.65)">2:30 – 5:00</text>

  <!-- Break 17:00-18:00 x=420 w=40 -->
  <rect x="422" y="76" width="36"  height="48" rx="5" fill="#EAB308" opacity="0.88"/>
  <text x="440" y="105" text-anchor="middle" font-family="'Inter',system-ui,sans-serif" font-size="7.5" font-weight="600" fill="#fff">Break</text>

  <!-- Personal 18:00-20:00 x=460 w=80 -->
  <rect x="462" y="76" width="76"  height="48" rx="5" fill="#14B8A6" opacity="0.88"/>
  <text x="500" y="105" text-anchor="middle" font-family="'Inter',system-ui,sans-serif" font-size="7.5" font-weight="600" fill="#fff">Personal</text>

  <!-- Track 2 (y=130, h=32) -->
  <rect x="82"  y="132" width="36" height="32" rx="4" fill="#60A5FA" opacity="0.7"/>
  <text x="100" y="152" text-anchor="middle" font-family="'Inter',system-ui,sans-serif" font-size="7" fill="#fff">Email</text>

  <rect x="142" y="132" width="56" height="32" rx="4" fill="#A78BFA" opacity="0.7"/>
  <text x="170" y="152" text-anchor="middle" font-family="'Inter',system-ui,sans-serif" font-size="7" fill="#fff">Planning</text>

  <rect x="342" y="132" width="36" height="32" rx="4" fill="#6366F1" opacity="0.7"/>
  <text x="360" y="152" text-anchor="middle" font-family="'Inter',system-ui,sans-serif" font-size="7" fill="#fff">Review</text>

  <rect x="442" y="132" width="36" height="32" rx="4" fill="#94A3B8" opacity="0.6"/>
  <text x="460" y="152" text-anchor="middle" font-family="'Inter',system-ui,sans-serif" font-size="7" fill="#fff">Admin</text>

  <!-- Legend -->
  <text x="582" y="88" font-family="'Inter',system-ui,sans-serif" font-size="8.5" fill="#64748B" letter-spacing="1.5">BLOCK TYPES</text>
  <rect x="582" y="100" width="10" height="10" rx="2" fill="#8B5CF6"/>
  <text x="598" y="110" font-family="'Inter',system-ui,sans-serif" font-size="9" fill="#94A3B8">Deep Work</text>
  <rect x="582" y="118" width="10" height="10" rx="2" fill="#22C55E"/>
  <text x="598" y="128" font-family="'Inter',system-ui,sans-serif" font-size="9" fill="#94A3B8">Exercise</text>
  <rect x="582" y="136" width="10" height="10" rx="2" fill="#3B82F6"/>
  <text x="598" y="146" font-family="'Inter',system-ui,sans-serif" font-size="9" fill="#94A3B8">Meeting</text>
  <rect x="582" y="154" width="10" height="10" rx="2" fill="#F97316"/>
  <text x="598" y="164" font-family="'Inter',system-ui,sans-serif" font-size="9" fill="#94A3B8">Break</text>
  <rect x="582" y="172" width="10" height="10" rx="2" fill="#14B8A6"/>
  <text x="598" y="182" font-family="'Inter',system-ui,sans-serif" font-size="9" fill="#94A3B8">Personal</text>

  <!-- Divider -->
  <line x1="60" y1="215" x2="740" y2="215" stroke="#1E293B" stroke-width="1.5" opacity="0.8"/>

  <!-- Stat cards (4 cards, each 158px wide, 15px gap, from x=60 to x=740) -->
  <!-- Focus -->
  <rect x="60"  y="228" width="158" height="95" rx="10" fill="#0F172A" opacity="0.8"/>
  <text x="139" y="251" text-anchor="middle" font-family="'Inter',system-ui,sans-serif" font-size="8.5" fill="#64748B" letter-spacing="1">FOCUS TODAY</text>
  <text x="139" y="284" text-anchor="middle" font-family="'Inter',system-ui,sans-serif" font-size="26" font-weight="700" fill="#8B5CF6">5.5h</text>
  <text x="139" y="302" text-anchor="middle" font-family="'Inter',system-ui,sans-serif" font-size="8" fill="#64748B">deep work</text>

  <!-- Meetings -->
  <rect x="233" y="228" width="158" height="95" rx="10" fill="#0F172A" opacity="0.8"/>
  <text x="312" y="251" text-anchor="middle" font-family="'Inter',system-ui,sans-serif" font-size="8.5" fill="#64748B" letter-spacing="1">MEETINGS</text>
  <text x="312" y="284" text-anchor="middle" font-family="'Inter',system-ui,sans-serif" font-size="26" font-weight="700" fill="#3B82F6">1.5h</text>
  <text x="312" y="302" text-anchor="middle" font-family="'Inter',system-ui,sans-serif" font-size="8" fill="#64748B">scheduled</text>

  <!-- Block types -->
  <rect x="406" y="228" width="158" height="95" rx="10" fill="#0F172A" opacity="0.8"/>
  <text x="485" y="251" text-anchor="middle" font-family="'Inter',system-ui,sans-serif" font-size="8.5" fill="#64748B" letter-spacing="1">BLOCK TYPES</text>
  <text x="485" y="284" text-anchor="middle" font-family="'Inter',system-ui,sans-serif" font-size="26" font-weight="700" fill="#14B8A6">∞</text>
  <text x="485" y="302" text-anchor="middle" font-family="'Inter',system-ui,sans-serif" font-size="8" fill="#64748B">unlimited custom</text>

  <!-- Utilization -->
  <rect x="579" y="228" width="161" height="95" rx="10" fill="#0F172A" opacity="0.8"/>
  <text x="659" y="251" text-anchor="middle" font-family="'Inter',system-ui,sans-serif" font-size="8.5" fill="#64748B" letter-spacing="1">UTILIZATION</text>
  <text x="659" y="284" text-anchor="middle" font-family="'Inter',system-ui,sans-serif" font-size="26" font-weight="700" fill="#22C55E">78%</text>
  <text x="659" y="302" text-anchor="middle" font-family="'Inter',system-ui,sans-serif" font-size="8" fill="#64748B">this month</text>

  <!-- Monthly utilization bar chart -->
  <text x="400" y="352" text-anchor="middle" font-family="'Inter',system-ui,sans-serif" font-size="8.5" fill="#475569" letter-spacing="1.5">MONTHLY UTILIZATION</text>
  <!-- 16 bars, bottom at y=418, max height=52px -->
  <rect x="152" y="398" width="20" height="20" rx="2" fill="url(#barUp)" opacity="0.7"/>
  <rect x="177" y="387" width="20" height="31" rx="2" fill="url(#barUp)" opacity="0.75"/>
  <rect x="202" y="380" width="20" height="38" rx="2" fill="url(#barUp)" opacity="0.80"/>
  <rect x="227" y="390" width="20" height="28" rx="2" fill="url(#barUp)" opacity="0.72"/>
  <rect x="252" y="393" width="20" height="25" rx="2" fill="url(#barUp)" opacity="0.68"/>
  <rect x="277" y="378" width="20" height="40" rx="2" fill="url(#barUp)" opacity="0.82"/>
  <rect x="302" y="384" width="20" height="34" rx="2" fill="url(#barUp)" opacity="0.78"/>
  <rect x="327" y="374" width="20" height="44" rx="2" fill="url(#barUp)" opacity="0.85"/>
  <rect x="352" y="382" width="20" height="36" rx="2" fill="url(#barGreen)" opacity="0.80"/>
  <rect x="377" y="376" width="20" height="42" rx="2" fill="url(#barGreen)" opacity="0.83"/>
  <rect x="402" y="370" width="20" height="48" rx="2" fill="url(#barGreen)" opacity="0.86"/>
  <rect x="427" y="373" width="20" height="45" rx="2" fill="url(#barGreen)" opacity="0.85"/>
  <rect x="452" y="366" width="20" height="52" rx="2" fill="url(#barGreen)" opacity="0.90"/>
  <rect x="477" y="369" width="20" height="49" rx="2" fill="url(#barGreen)" opacity="0.88"/>
  <rect x="502" y="362" width="20" height="56" rx="2" fill="url(#barGreen)" opacity="0.92"/>
  <rect x="527" y="365" width="20" height="53" rx="2" fill="url(#barGreen)" opacity="0.90"/>

  <!-- Footer -->
  <text x="400" y="440" text-anchor="middle" font-family="'Inter',system-ui,sans-serif" font-size="8.5" fill="#334155" letter-spacing="0.5">localStorage · React · TypeScript · No backend</text>
</svg>
